<svg width="86" height="86" viewBox="0 0 86 86" fill="none" xmlns="http://www.w3.org/2000/svg">
<path d="M63.6904 11.7086V74.2356C63.6904 76.8352 61.5813 78.9442 58.9801 78.9442H12.7086C10.1073 78.9442 8 76.8352 8 74.2356V11.7086C8 9.10747 10.1075 7 12.7086 7H58.9801C61.5813 7 63.6904 9.10761 63.6904 11.7086Z" fill="#424C59"/>
<path d="M63.6906 11.7086V19.1023H8.00049V11.7086C8.00049 9.10761 10.1078 7 12.7091 7H58.9803C61.5816 7 63.6906 9.10761 63.6906 11.7086Z" fill="#EAEAEA"/>
<path d="M15.5013 15.3582C16.8407 15.3582 17.9265 14.2724 17.9265 12.933C17.9265 11.5936 16.8407 10.5078 15.5013 10.5078C14.162 10.5078 13.0762 11.5936 13.0762 12.933C13.0762 14.2724 14.162 15.3582 15.5013 15.3582Z" fill="#F9572B"/>
<path d="M23.6671 15.3582C25.0065 15.3582 26.0923 14.2724 26.0923 12.933C26.0923 11.5936 25.0065 10.5078 23.6671 10.5078C22.3277 10.5078 21.2419 11.5936 21.2419 12.933C21.2419 14.2724 22.3277 15.3582 23.6671 15.3582Z" fill="#FCC63D"/>
<path d="M31.8314 15.3582C33.1708 15.3582 34.2566 14.2724 34.2566 12.933C34.2566 11.5936 33.1708 10.5078 31.8314 10.5078C30.492 10.5078 29.4062 11.5936 29.4062 12.933C29.4062 14.2724 30.492 15.3582 31.8314 15.3582Z" fill="#45B8C4"/>
<path d="M63.5043 43.2357C71.2127 43.2357 77.4616 36.9869 77.4616 29.2785C77.4616 21.5702 71.2127 15.3213 63.5043 15.3213C55.796 15.3213 49.5471 21.5702 49.5471 29.2785C49.5471 36.9869 55.796 43.2357 63.5043 43.2357Z" fill="#45B8C4"/>
<path d="M44.1156 28.8543H19.6547C19.0459 28.8543 18.5527 28.3609 18.5527 27.7523C18.5527 27.1437 19.0459 26.6504 19.6547 26.6504H44.1155C44.7242 26.6504 45.2174 27.1437 45.2174 27.7523C45.2173 28.3609 44.7241 28.8543 44.1156 28.8543Z" fill="#FCC63D"/>
<path d="M14.734 28.8531C13.7244 28.8531 13.2468 27.5416 14.0344 26.9003C14.8132 26.266 16.0183 26.9679 15.814 27.9671C15.71 28.4758 15.254 28.8531 14.734 28.8531Z" fill="white"/>
<path d="M44.1156 41.1668H19.6547C19.0459 41.1668 18.5527 40.6734 18.5527 40.0648C18.5527 39.4562 19.0459 38.9629 19.6547 38.9629H44.1155C44.7242 38.9629 45.2174 39.4562 45.2174 40.0648C45.2173 40.6734 44.7241 41.1668 44.1156 41.1668Z" fill="#FCC63D"/>
<path d="M14.734 41.166C14.2729 41.166 13.8525 40.8681 13.6962 40.4348C13.5425 40.0083 13.6735 39.5155 14.0204 39.223C14.7587 38.6 15.9272 39.2064 15.8304 40.1719C15.7748 40.7275 15.2924 41.166 14.734 41.166Z" fill="white"/>
<path d="M54.0323 47.322H47.1281C46.5193 47.322 46.0261 46.8287 46.0261 46.2201C46.0261 45.6115 46.5193 45.1182 47.1281 45.1182H54.0323C54.6411 45.1182 55.1343 45.6115 55.1343 46.2201C55.1341 46.8287 54.6408 47.322 54.0323 47.322Z" fill="white"/>
<path d="M43.4545 47.323H30.6002C29.9915 47.323 29.4983 46.8297 29.4983 46.2211C29.4983 45.6125 29.9915 45.1191 30.6002 45.1191H43.4545C44.0633 45.1191 44.5565 45.6125 44.5565 46.2211C44.5565 46.8297 44.0631 47.323 43.4545 47.323Z" fill="#F9572B"/>
<path d="M26.9268 47.323H19.6547C19.0459 47.323 18.5527 46.8297 18.5527 46.2211C18.5527 45.6125 19.0459 45.1191 19.6547 45.1191H26.9268C27.5355 45.1191 28.0287 45.6125 28.0287 46.2211C28.0287 46.8297 27.5355 47.323 26.9268 47.323Z" fill="white"/>
<path d="M14.7343 47.3226C13.7407 47.3226 13.2597 46.0525 14.0046 45.3951C14.7466 44.7403 15.9537 45.3708 15.8275 46.3571C15.7578 46.9004 15.2837 47.3226 14.7343 47.3226Z" fill="white"/>
<path d="M37.5045 53.4793H19.6547C19.0459 53.4793 18.5527 52.9859 18.5527 52.3773C18.5527 51.7687 19.0459 51.2754 19.6547 51.2754H37.5043C38.1131 51.2754 38.6063 51.7687 38.6063 52.3773C38.6063 52.9859 38.1131 53.4793 37.5045 53.4793Z" fill="#FCC63D"/>
<path d="M14.734 53.4786C14.293 53.4786 13.8849 53.2053 13.7159 52.7984C13.5249 52.3385 13.675 51.791 14.0752 51.4937C14.8767 50.8985 16.0376 51.6431 15.8065 52.6256C15.6908 53.1184 15.2416 53.4786 14.734 53.4786Z" fill="white"/>
<path d="M48.523 59.6345H45.1444C44.5357 59.6345 44.0425 59.1412 44.0425 58.5326C44.0425 57.924 44.5357 57.4307 45.1444 57.4307H48.523C49.1317 57.4307 49.6249 57.924 49.6249 58.5326C49.6249 59.1412 49.1316 59.6345 48.523 59.6345Z" fill="#F9572B"/>
<path d="M41.4713 59.6345H31.702C31.0933 59.6345 30.6001 59.1412 30.6001 58.5326C30.6001 57.924 31.0933 57.4307 31.702 57.4307H41.4713C42.08 57.4307 42.5732 57.924 42.5732 58.5326C42.5732 59.1412 42.0799 59.6345 41.4713 59.6345Z" fill="#FCC63D"/>
<path d="M28.0286 59.6345H19.6547C19.0459 59.6345 18.5527 59.1412 18.5527 58.5326C18.5527 57.924 19.0459 57.4307 19.6547 57.4307H28.0286C28.6373 57.4307 29.1305 57.924 29.1305 58.5326C29.1304 59.1412 28.6372 59.6345 28.0286 59.6345Z" fill="white"/>
<path d="M14.7342 59.634C13.7421 59.634 13.2597 58.3679 14.0017 57.7089C14.7437 57.0498 15.9533 57.6828 15.8273 58.6691C15.7578 59.2127 15.2835 59.634 14.7342 59.634Z" fill="white"/>
<path d="M53.5915 65.7908H37.8722C37.2635 65.7908 36.7703 65.2974 36.7703 64.6888C36.7703 64.0803 37.2635 63.5869 37.8722 63.5869H53.5915C54.2002 63.5869 54.6934 64.0803 54.6934 64.6888C54.6934 65.2974 54.2001 65.7908 53.5915 65.7908Z" fill="white"/>
<path d="M34.1988 65.7908H19.6547C19.0459 65.7908 18.5527 65.2974 18.5527 64.6888C18.5527 64.0803 19.0459 63.5869 19.6547 63.5869H34.1988C34.8075 63.5869 35.3008 64.0803 35.3008 64.6888C35.3008 65.2974 34.8075 65.7908 34.1988 65.7908Z" fill="#F9572B"/>
<path d="M14.734 65.7915C13.7496 65.7915 13.2627 64.5358 13.9931 63.8726C14.7202 63.2124 15.9303 63.812 15.8303 64.7967C15.7739 65.3515 15.2926 65.7915 14.734 65.7915Z" fill="white"/>
<path d="M26.9268 71.947H19.6547C19.0459 71.947 18.5527 71.4537 18.5527 70.8451C18.5527 70.2365 19.0459 69.7432 19.6547 69.7432H26.9268C27.5355 69.7432 28.0287 70.2365 28.0287 70.8451C28.0287 71.4537 27.5355 71.947 26.9268 71.947Z" fill="#F9572B"/>
<path d="M14.7342 71.9471C14.2738 71.9471 13.8515 71.6491 13.6965 71.2159C13.5328 70.7588 13.6962 70.2289 14.0938 69.9478C14.8846 69.3889 16.0117 70.095 15.8143 71.0596C15.71 71.5681 15.2544 71.9471 14.7342 71.9471Z" fill="white"/>
<path d="M25.1638 35.0105H19.6547C19.0459 35.0105 18.5527 34.5172 18.5527 33.9086C18.5527 33.3 19.0459 32.8066 19.6547 32.8066H25.1638C25.7725 32.8066 26.2657 33.3 26.2657 33.9086C26.2657 34.5172 25.7725 35.0105 25.1638 35.0105Z" fill="#F9572B"/>
<path d="M39.7085 35.0105H29.131C28.5223 35.0105 28.0291 34.5172 28.0291 33.9086C28.0291 33.3 28.5223 32.8066 29.131 32.8066H39.7085C40.3172 32.8066 40.8104 33.3 40.8104 33.9086C40.8103 34.5172 40.3169 35.0105 39.7085 35.0105Z" fill="white"/>
<path d="M14.7341 35.011C14.282 35.011 13.8691 34.7244 13.7063 34.3042C13.5329 33.857 13.6775 33.3348 14.0557 33.0401C14.8388 32.43 16.0158 33.1395 15.814 34.1237C15.7099 34.6319 15.2543 35.011 14.7341 35.011Z" fill="white"/>
<path d="M62.8432 36.6612C62.5454 36.6612 62.2575 36.5405 62.0484 36.3224L56.7596 30.8133C56.3381 30.3743 56.3526 29.6768 56.7914 29.2554C57.2304 28.834 57.9277 28.8483 58.3493 29.2873L62.5798 33.6942L68.4791 22.4854C68.7626 21.947 69.429 21.74 69.9675 22.0236C70.5059 22.307 70.7128 22.9733 70.4294 23.5119L63.8183 36.0728C63.6535 36.3862 63.348 36.6012 62.9973 36.6506C62.9459 36.6575 62.8943 36.6612 62.8432 36.6612Z" fill="white"/>
</svg>
