<svg width="86" height="86" viewBox="0 0 86 86" fill="none" xmlns="http://www.w3.org/2000/svg">
<path d="M11.9749 81.091H73.1157C75.2307 81.091 77.2592 80.2508 78.7548 78.7552C80.2503 77.2596 81.0906 75.2312 81.0906 73.1161V69.1287L70.4574 19.9502H19.9497L11.9749 81.091Z" fill="#7ACBF8"/>
<path d="M19.9498 73.1157V11.9749C19.9498 9.85982 19.1096 7.83137 17.614 6.33579C16.1184 4.84021 14.09 4 11.9749 4C9.85982 4 7.83137 4.84021 6.33579 6.33579C4.84021 7.83137 4 9.85982 4 11.9749V73.1157H19.9498Z" fill="#5EACD8"/>
<path d="M11.9749 81.0904C16.3793 81.0904 19.9498 77.5199 19.9498 73.1155C19.9498 68.7111 16.3793 65.1406 11.9749 65.1406C7.57048 65.1406 4 68.7111 4 73.1155C4 77.5199 7.57048 81.0904 11.9749 81.0904Z" fill="#3884AF"/>
<path d="M81.0905 11.9749V73.1157C81.0923 72.7915 81.0745 72.4675 81.0373 72.1454C80.7982 70.1768 79.8077 68.3767 78.2727 67.1213C76.7296 65.8415 74.788 65.141 72.7833 65.1408C72.4776 65.1415 72.1749 65.0818 71.8923 64.9652C71.6098 64.8485 71.3531 64.6772 71.137 64.4611C70.9209 64.245 70.7496 63.9883 70.6329 63.7058C70.5163 63.4232 70.4566 63.1205 70.4573 62.8148V6.32602C70.4566 6.02036 70.5163 5.71758 70.6329 5.43506C70.7496 5.15254 70.9209 4.89584 71.137 4.67972C71.3531 4.46359 71.6098 4.29228 71.8923 4.17564C72.1749 4.05899 72.4776 3.99931 72.7833 4.00001H73.1156C75.2306 4.00001 77.2591 4.84022 78.7547 6.3358C80.2503 7.83138 81.0905 9.85982 81.0905 11.9749V11.9749Z" fill="#5EACD8"/>
<path d="M65.061 48.8056C65.0379 48.5947 64.9575 48.394 64.8287 48.2254C64.6999 48.0568 64.5274 47.9265 64.33 47.8486L61.1135 46.5726C60.7264 44.9847 60.0989 43.4652 59.2527 42.0668L60.6084 38.8769C60.6954 38.6823 60.7266 38.4674 60.6985 38.2561C60.6703 38.0449 60.5839 37.8456 60.4489 37.6806C59.7102 36.8135 58.9011 36.0088 58.0299 35.2749C57.8649 35.1399 57.6656 35.0535 57.4544 35.0253C57.2431 34.9972 57.0282 35.0283 56.8336 35.1154L53.657 36.4711C52.258 35.623 50.7389 34.9911 49.1511 34.597L47.8752 31.3938C47.7956 31.1975 47.6648 31.0261 47.4965 30.8975C47.3282 30.769 47.1285 30.6879 46.9182 30.6627C45.7776 30.5564 44.6296 30.5564 43.489 30.6627C43.2787 30.6879 43.0789 30.769 42.9106 30.8975C42.7423 31.0261 42.6116 31.1975 42.532 31.3938L41.256 34.597C39.6682 34.9911 38.1491 35.623 36.7502 36.4711L33.5735 35.1154C33.379 35.0283 33.164 34.9972 32.9528 35.0253C32.7415 35.0535 32.5423 35.1399 32.3773 35.2749C31.5061 36.0088 30.697 36.8135 29.9583 37.6806C29.8233 37.8456 29.7369 38.0449 29.7087 38.2561C29.6805 38.4674 29.7117 38.6823 29.7988 38.8769L31.1545 42.0668C30.3083 43.4652 29.6808 44.9847 29.2937 46.5726L26.0771 47.8486C25.8797 47.9265 25.7073 48.0568 25.5785 48.2254C25.4496 48.394 25.3693 48.5947 25.3461 48.8056C25.2929 49.3771 25.2664 49.9487 25.2664 50.5202C25.2664 51.0917 25.2929 51.6633 25.3461 52.2348C25.3693 52.4458 25.4496 52.6464 25.5785 52.815C25.7073 52.9837 25.8797 53.1139 26.0771 53.1918L29.2937 54.4678C29.6808 56.0558 30.3083 57.5752 31.1545 58.9736L29.7988 62.1635C29.7117 62.3581 29.6805 62.573 29.7087 62.7843C29.7369 62.9956 29.8233 63.1948 29.9583 63.3598C30.697 64.227 31.5061 65.0316 32.3773 65.7655C32.5423 65.9005 32.7415 65.9869 32.9528 66.0151C33.164 66.0433 33.379 66.0121 33.5735 65.925L36.7502 64.5693C38.1491 65.4175 39.6682 66.0493 41.256 66.4434L42.532 69.6467C42.6116 69.8429 42.7423 70.0143 42.9106 70.1429C43.0789 70.2715 43.2787 70.3525 43.489 70.3777C44.6296 70.484 45.7776 70.484 46.9182 70.3777C47.1285 70.3525 47.3282 70.2715 47.4965 70.1429C47.6648 70.0143 47.7956 69.8429 47.8752 69.6467L49.1511 66.4434C50.7389 66.0493 52.258 65.4175 53.657 64.5693L56.8336 65.925C57.0282 66.0121 57.2431 66.0433 57.4544 66.0151C57.6656 65.9869 57.8649 65.9005 58.0299 65.7655C58.9011 65.0316 59.7102 64.227 60.4489 63.3598C60.5839 63.1948 60.6703 62.9956 60.6985 62.7843C60.7266 62.573 60.6954 62.3581 60.6084 62.1635L59.2527 58.9736C60.0989 57.5752 60.7264 56.0558 61.1135 54.4678L64.33 53.1918C64.5274 53.1139 64.6999 52.9837 64.8287 52.815C64.9575 52.6464 65.0379 52.4458 65.061 52.2348C65.1674 51.0942 65.1674 49.9462 65.061 48.8056V48.8056ZM45.2036 61.1534C43.1005 61.1534 41.0447 60.5298 39.2961 59.3614C37.5475 58.193 36.1846 56.5323 35.3798 54.5894C34.575 52.6464 34.3644 50.5084 34.7747 48.4458C35.185 46.3831 36.1977 44.4885 37.6848 43.0014C39.1719 41.5143 41.0665 40.5016 43.1291 40.0913C45.1918 39.6811 47.3298 39.8916 49.2727 40.6964C51.2157 41.5012 52.8764 42.8641 54.0447 44.6127C55.2131 46.3614 55.8368 48.4172 55.8368 50.5202C55.8368 53.3403 54.7165 56.0449 52.7224 58.039C50.7283 60.0331 48.0237 61.1534 45.2036 61.1534Z" fill="#E4F5FE"/>
<path d="M14.6332 65.6059V71.7864C14.6332 72.1389 14.4932 72.477 14.2439 72.7262C13.9946 72.9755 13.6566 73.1155 13.304 73.1155H12.2009C11.1518 73.1341 10.1346 72.7553 9.35318 72.0552C8.57175 71.3551 8.08389 70.3855 7.98745 69.3408C7.93241 68.3188 8.27321 67.3149 8.93905 66.5377C9.60488 65.7605 10.5446 65.2697 11.5629 65.1672C11.6958 65.1539 11.842 65.1407 11.9749 65.1407C12.8815 65.1382 13.7813 65.2957 14.6332 65.6059V65.6059Z" fill="#2B6D93"/>
<path d="M45.2035 62.4823C42.8376 62.4823 40.5248 61.7807 38.5576 60.4663C36.5904 59.1518 35.0572 57.2836 34.1518 55.0977C33.2464 52.9119 33.0095 50.5067 33.4711 48.1862C33.9326 45.8658 35.0719 43.7343 36.7449 42.0613C38.4179 40.3883 40.5493 39.249 42.8698 38.7875C45.1903 38.3259 47.5955 38.5628 49.7813 39.4682C51.9672 40.3736 53.8354 41.9068 55.1499 43.874C56.4643 45.8412 57.1659 48.154 57.1659 50.52C57.1624 53.6915 55.9009 56.7321 53.6583 58.9747C51.4157 61.2173 48.3751 62.4788 45.2035 62.4823V62.4823ZM45.2035 41.2159C43.3634 41.2159 41.5645 41.7616 40.0345 42.7839C38.5045 43.8063 37.3119 45.2594 36.6077 46.9595C35.9035 48.6595 35.7193 50.5303 36.0783 52.3351C36.4373 54.1399 37.3234 55.7977 38.6246 57.0989C39.9258 58.4001 41.5836 59.2862 43.3884 59.6452C45.1932 60.0042 47.064 59.82 48.764 59.1158C50.4641 58.4116 51.9172 57.219 52.9396 55.689C53.9619 54.159 54.5076 52.3601 54.5076 50.52C54.5044 48.0533 53.5232 45.6887 51.779 43.9445C50.0348 42.2003 47.6702 41.2191 45.2035 41.2159V41.2159Z" fill="white"/>
</svg>
