<svg width="86" height="86" viewBox="0 0 86 86" fill="none" xmlns="http://www.w3.org/2000/svg">
<path d="M74.5485 18.6699V60.3051C74.5485 62.1205 73.0768 63.5921 71.2615 63.5921H14.287C12.4716 63.5921 11 62.1205 11 60.3051V18.6699H74.5485Z" fill="#ECF0F1"/>
<path d="M74.5485 14.287V19.7653H11V14.287C11 12.4716 12.4716 11 14.287 11H71.2615C73.0768 11 74.5485 12.4716 74.5485 14.287Z" fill="#547580"/>
<path d="M59.209 37.2965H63.0438C65.7668 37.2965 67.9743 35.0891 67.9743 32.366C67.9743 29.643 65.7668 27.4355 63.0438 27.4355H50.9915C48.2685 27.4355 46.061 29.643 46.061 32.366C46.061 35.0891 48.2685 37.2965 50.9915 37.2965H59.209Z" fill="#F29C1F"/>
<path d="M15.3828 16.4784C15.9879 16.4784 16.4784 15.9879 16.4784 15.3828C16.4784 14.7777 15.9879 14.2871 15.3828 14.2871C14.7777 14.2871 14.2871 14.7777 14.2871 15.3828C14.2871 15.9879 14.7777 16.4784 15.3828 16.4784Z" fill="#E64C3C"/>
<path d="M19.7651 16.4784C20.3702 16.4784 20.8608 15.9879 20.8608 15.3828C20.8608 14.7777 20.3702 14.2871 19.7651 14.2871C19.16 14.2871 18.6694 14.7777 18.6694 15.3828C18.6694 15.9879 19.16 16.4784 19.7651 16.4784Z" fill="#F0C419"/>
<path d="M24.1479 16.4784C24.753 16.4784 25.2436 15.9879 25.2436 15.3828C25.2436 14.7777 24.753 14.2871 24.1479 14.2871C23.5428 14.2871 23.0522 14.7777 23.0522 15.3828C23.0522 15.9879 23.5428 16.4784 24.1479 16.4784Z" fill="#24AE5F"/>
<path d="M69.4647 51.5395L64.2275 61.2361C63.1537 63.2521 62.3101 65.6626 60.4693 67.1308C60.0593 67.4652 59.736 67.8937 59.5271 68.3798C59.3386 68.7925 59.2414 69.2409 59.2422 69.6946V73.4527C59.2422 74.0578 58.7516 74.5484 58.1465 74.5484H46.0614C45.4562 74.5484 44.9657 74.0578 44.9657 73.4527V70.1767C44.9838 68.3678 44.5104 66.588 43.5961 65.0271C42.3422 62.9389 41.6795 60.5492 41.6787 58.1134V48.2525C41.6877 47.046 42.6635 46.0701 43.87 46.0612C45.0788 46.0648 46.0578 47.0437 46.0614 48.2525V47.1568C46.0703 45.9503 47.0462 44.9744 48.2527 44.9655C49.4614 44.9691 50.4404 45.9481 50.444 47.1568V46.0612C50.453 44.8546 51.4288 43.8788 52.6353 43.8698C53.8441 43.8734 54.8231 44.8524 54.8267 46.0612V36.0797C54.8311 35.4054 55.1439 34.7703 55.6758 34.3559C56.2077 33.9415 56.9 33.7935 57.5549 33.9541C58.5516 34.2414 59.2305 35.1631 59.2093 36.2002V54.5964C59.2118 55.0971 59.5534 55.5324 60.0392 55.6539C60.525 55.7753 61.0313 55.552 61.2692 55.1113L64.6876 48.8222C65.0557 48.136 65.6976 47.6381 66.4538 47.4522C67.21 47.2662 68.0096 47.4098 68.6539 47.8471C69.8196 48.6954 70.1677 50.2808 69.4647 51.5395Z" fill="#FDD7AD"/>
<path d="M40.5826 28.5311V37.2964C40.5826 39.1118 39.111 40.5834 37.2956 40.5834H35.3782L35.8428 44.3032C35.8984 44.7539 35.6703 45.1923 35.2692 45.4052C34.868 45.6182 34.3771 45.5616 34.0349 45.263L28.6837 40.5834H19.765C17.9497 40.5834 16.478 39.1118 16.478 37.2964V28.5311C16.478 26.7158 17.9497 25.2441 19.765 25.2441H37.2956C39.111 25.2441 40.5826 26.7158 40.5826 28.5311Z" fill="#26B99A"/>
<path d="M23.0521 31.8173H20.8608C20.2557 31.8173 19.7651 31.3268 19.7651 30.7216C19.7651 30.1165 20.2557 29.626 20.8608 29.626H23.0521C23.6572 29.626 24.1478 30.1165 24.1478 30.7216C24.1478 31.3268 23.6572 31.8173 23.0521 31.8173Z" fill="white"/>
<path d="M36.2001 31.8173H27.4348C26.8297 31.8173 26.3391 31.3268 26.3391 30.7216C26.3391 30.1165 26.8297 29.626 27.4348 29.626H36.2001C36.8052 29.626 37.2957 30.1165 37.2957 30.7216C37.2957 31.3268 36.8052 31.8173 36.2001 31.8173Z" fill="white"/>
<path d="M36.2003 36.2001H34.009C33.4039 36.2001 32.9133 35.7096 32.9133 35.1045C32.9133 34.4993 33.4039 34.0088 34.009 34.0088H36.2003C36.8054 34.0088 37.296 34.4993 37.296 35.1045C37.296 35.7096 36.8054 36.2001 36.2003 36.2001Z" fill="white"/>
<path d="M29.6261 36.2001H20.8608C20.2557 36.2001 19.7651 35.7096 19.7651 35.1045C19.7651 34.4993 20.2557 34.0088 20.8608 34.0088H29.6261C30.2312 34.0088 30.7218 34.4993 30.7218 35.1045C30.7218 35.7096 30.2312 36.2001 29.6261 36.2001Z" fill="white"/>
<path d="M19.7654 60.3054H15.3828C14.7777 60.3054 14.2871 59.8149 14.2871 59.2098V54.8271C14.2871 54.222 14.7777 53.7314 15.3828 53.7314C15.9879 53.7314 16.4784 54.222 16.4784 54.8271V58.1141H19.7654C20.3705 58.1141 20.8611 58.6046 20.8611 59.2098C20.8611 59.8149 20.3705 60.3054 19.7654 60.3054Z" fill="#95A5A5"/>
<path d="M46.061 48.2528V53.7312C46.061 54.3363 45.5704 54.8268 44.9653 54.8268C44.3602 54.8268 43.8696 54.3363 43.8696 53.7312V46.0615C45.0784 46.0651 46.0573 47.0441 46.061 48.2528Z" fill="#F9C795"/>
<path d="M50.4438 47.1571V53.7311C50.4438 54.3362 49.9532 54.8268 49.3481 54.8268C48.743 54.8268 48.2524 54.3362 48.2524 53.7311V44.9658C49.4612 44.9694 50.4402 45.9484 50.4438 47.1571Z" fill="#F9C795"/>
<path d="M54.8263 46.0614V53.7311C54.8263 54.3362 54.3358 54.8268 53.7307 54.8268C53.1256 54.8268 52.635 54.3362 52.635 53.7311V43.8701C53.8437 43.8737 54.8227 44.8527 54.8263 46.0614Z" fill="#F9C795"/>
</svg>
