<svg width="86" height="86" viewBox="0 0 86 86" fill="none" xmlns="http://www.w3.org/2000/svg">
<path d="M70.952 50.7693C78.6789 50.7693 84.9424 44.5058 84.9424 36.7789C84.9424 29.052 78.6789 22.7885 70.952 22.7885C68.3904 22.7885 65.9966 23.488 63.9316 24.6912C63.9358 24.5219 63.9568 24.3568 63.9568 24.1875C63.9568 14.1424 55.8144 6 45.7693 6C37.0421 6 29.7573 12.1502 27.9945 20.3514C26.2583 19.2433 24.2003 18.5914 21.9856 18.5914C15.8046 18.5914 10.7933 23.6027 10.7933 29.7837C10.7933 30.2608 10.8325 30.7266 10.8912 31.1883C10.8576 31.1869 10.8255 31.1827 10.7933 31.1827C5.38459 31.1827 1 35.5673 1 40.976C1 46.3847 5.38459 50.7693 10.7933 50.7693H70.952Z" fill="#A1CDFB"/>
<path d="M70.952 67.5574C78.6789 67.5574 84.9424 61.2939 84.9424 53.567C84.9424 45.8401 78.6789 39.5766 70.952 39.5766C68.3904 39.5766 65.9966 40.2761 63.9316 41.4793C63.9358 41.31 63.9568 41.1449 63.9568 40.9756C63.9568 30.9305 55.8144 22.7881 45.7693 22.7881C37.0421 22.7881 29.7573 28.9383 27.9945 37.1394C26.2583 36.0314 24.2003 35.3794 21.9856 35.3794C15.8046 35.3794 10.7933 40.3908 10.7933 46.5718C10.7933 47.0488 10.8325 47.5147 10.8912 47.9764C10.8576 47.975 10.8255 47.9708 10.7933 47.9708C5.38459 47.9708 1 52.3554 1 57.7641C1 63.1728 5.38459 67.5574 10.7933 67.5574H70.952Z" fill="#C7E2FC"/>
<path d="M62.8289 58.3964C62.8057 58.1855 62.7253 57.9849 62.5965 57.8162C62.4677 57.6476 62.2953 57.5173 62.0978 57.4394L58.8813 56.1635C58.4942 54.5755 57.8667 53.056 57.0205 51.6577L58.3762 48.4677C58.4633 48.2731 58.4944 48.0582 58.4663 47.8469C58.4381 47.6357 58.3517 47.4364 58.2167 47.2715C57.478 46.4043 56.6689 45.5996 55.7977 44.8657C55.6327 44.7307 55.4335 44.6443 55.2222 44.6162C55.0109 44.588 54.796 44.6192 54.6014 44.7062L51.4248 46.0619C50.0259 45.2138 48.5068 44.5819 46.919 44.1878L45.643 40.9846C45.5634 40.7883 45.4327 40.6169 45.2643 40.4884C45.096 40.3598 44.8963 40.2787 44.686 40.2536C43.5454 40.1472 42.3974 40.1472 41.2568 40.2536C41.0465 40.2787 40.8468 40.3598 40.6784 40.4884C40.5101 40.6169 40.3794 40.7883 40.2998 40.9846L39.0238 44.1878C37.436 44.5819 35.9169 45.2138 34.518 46.0619L31.3414 44.7062C31.1468 44.6192 30.9319 44.588 30.7206 44.6162C30.5093 44.6443 30.3101 44.7307 30.1451 44.8657C29.2739 45.5996 28.4648 46.4043 27.7261 47.2715C27.5911 47.4364 27.5047 47.6357 27.4765 47.8469C27.4484 48.0582 27.4795 48.2731 27.5666 48.4677L28.9223 51.6577C28.0761 53.056 27.4486 54.5755 27.0615 56.1635L23.845 57.4394C23.6475 57.5173 23.4751 57.6476 23.3463 57.8162C23.2175 57.9849 23.1371 58.1855 23.1139 58.3964C23.0608 58.968 23.0342 59.5395 23.0342 60.111C23.0342 60.6826 23.0608 61.2541 23.1139 61.8256C23.1371 62.0366 23.2175 62.2372 23.3463 62.4058C23.4751 62.5745 23.6475 62.7048 23.845 62.7826L27.0615 64.0586C27.4486 65.6466 28.0761 67.1661 28.9223 68.5644L27.5666 71.7544C27.4795 71.9489 27.4484 72.1639 27.4765 72.3751C27.5047 72.5864 27.5911 72.7857 27.7261 72.9506C28.4648 73.8178 29.2739 74.6225 30.1451 75.3564C30.3101 75.4913 30.5093 75.5777 30.7206 75.6059C30.9319 75.6341 31.1468 75.6029 31.3414 75.5159L34.518 74.1601C35.9169 75.0083 37.436 75.6401 39.0238 76.0342L40.2998 79.2375C40.3794 79.4338 40.5101 79.6051 40.6784 79.7337C40.8468 79.8623 41.0465 79.9434 41.2568 79.9685C42.3974 80.0748 43.5454 80.0748 44.686 79.9685C44.8963 79.9434 45.096 79.8623 45.2643 79.7337C45.4327 79.6051 45.5634 79.4338 45.643 79.2375L46.919 76.0342C48.5068 75.6401 50.0259 75.0083 51.4248 74.1601L54.6014 75.5159C54.796 75.6029 55.0109 75.6341 55.2222 75.6059C55.4335 75.5777 55.6327 75.4913 55.7977 75.3564C56.6689 74.6225 57.478 73.8178 58.2167 72.9506C58.3517 72.7857 58.4381 72.5864 58.4663 72.3751C58.4944 72.1639 58.4633 71.9489 58.3762 71.7544L57.0205 68.5644C57.8667 67.1661 58.4942 65.6466 58.8813 64.0586L62.0978 62.7826C62.2953 62.7048 62.4677 62.5745 62.5965 62.4058C62.7253 62.2372 62.8057 62.0366 62.8289 61.8256C62.9352 60.685 62.9352 59.537 62.8289 58.3964V58.3964ZM42.9714 70.7442C40.8684 70.7442 38.8125 70.1206 37.0639 68.9522C35.3153 67.7838 33.9524 66.1231 33.1476 64.1802C32.3428 62.2372 32.1322 60.0992 32.5425 58.0366C32.9528 55.974 33.9655 54.0793 35.4526 52.5922C36.9397 51.1052 38.8343 50.0924 40.897 49.6822C42.9596 49.2719 45.0976 49.4825 47.0405 50.2873C48.9835 51.0921 50.6442 52.4549 51.8126 54.2036C52.981 55.9522 53.6046 58.008 53.6046 60.111C53.6046 62.9311 52.4843 65.6357 50.4902 67.6298C48.4961 69.6239 45.7915 70.7442 42.9714 70.7442Z" fill="#E4F5FE"/>
<path d="M42.9711 72.0731C40.6052 72.0731 38.2924 71.3715 36.3252 70.0571C34.358 68.7427 32.8248 66.8744 31.9194 64.6886C31.014 62.5027 30.7771 60.0975 31.2386 57.777C31.7002 55.4566 32.8395 53.3251 34.5125 51.6521C36.1854 49.9792 38.3169 48.8399 40.6374 48.3783C42.9579 47.9167 45.3631 48.1536 47.5489 49.059C49.7347 49.9644 51.603 51.4977 52.9174 53.4649C54.2319 55.4321 54.9335 57.7448 54.9335 60.1108C54.9299 63.2823 53.6685 66.3229 51.4259 68.5655C49.1833 70.8081 46.1427 72.0696 42.9711 72.0731V72.0731ZM42.9711 50.8067C41.131 50.8067 39.3321 51.3524 37.8021 52.3748C36.272 53.3971 35.0795 54.8502 34.3753 56.5503C33.6711 58.2504 33.4869 60.1211 33.8459 61.9259C34.2049 63.7307 35.091 65.3885 36.3922 66.6897C37.6934 67.9909 39.3512 68.877 41.156 69.236C42.9608 69.595 44.8315 69.4108 46.5316 68.7066C48.2317 68.0024 49.6848 66.8099 50.7071 65.2798C51.7295 63.7498 52.2752 61.9509 52.2752 60.1108C52.272 57.6442 51.2907 55.2795 49.5466 53.5353C47.8024 51.7912 45.4377 50.8099 42.9711 50.8067V50.8067Z" fill="white"/>
</svg>
