<svg width="86" height="86" viewBox="0 0 86 86" fill="none" xmlns="http://www.w3.org/2000/svg">
<path d="M10 14.6562V71.9455C10 76.1742 24.95 79.6022 43.3917 79.6022C61.8334 79.6022 76.7834 76.1742 76.7834 71.9455V14.6562C76.7834 14.6562 10 14.6562 10 14.6562Z" fill="#DFEAEF"/>
<path d="M69.1539 14.6562V33.7526C69.1539 37.6854 56.2219 40.9251 39.5769 41.3592C40.8292 41.3918 42.1016 41.4092 43.3917 41.4092C53.7627 41.4092 63.0292 40.325 69.1537 38.624V52.8488C69.1537 56.7816 56.2218 60.0213 39.5768 60.4554C40.829 60.4881 42.1014 60.5055 43.3916 60.5055C53.7626 60.5055 63.029 59.4213 69.1536 57.7204V72.0187C69.1536 75.9515 56.2216 79.1912 39.5767 79.6253C40.8292 79.6584 42.1016 79.6757 43.3919 79.6757C61.8336 79.6757 76.7836 76.2477 76.7836 72.019V52.9226H76.7795C76.7804 52.8981 76.7836 52.8737 76.7836 52.8491V33.7526V14.6562H69.1539Z" fill="#BFCFD6"/>
<path d="M43.3917 39.1811C24.95 39.1811 10 35.7531 10 31.5244V33.7535C10 37.9822 24.95 41.4102 43.3917 41.4102C61.8334 41.4102 76.7834 37.9822 76.7834 33.7535V31.5244C76.7834 35.7531 61.8334 39.1811 43.3917 39.1811Z" fill="#86AEBC"/>
<path d="M43.3917 58.2768C24.95 58.2768 10 54.8488 10 50.6201V52.8492C10 57.0779 24.95 60.5059 43.3917 60.5059C61.8334 60.5059 76.7834 57.0779 76.7834 52.8492V50.6201C76.7834 54.8488 61.8334 58.2768 43.3917 58.2768Z" fill="#86AEBC"/>
<path d="M43.3917 77.3774C24.95 77.3774 10 73.9494 10 69.7207V71.9498C10 76.1785 24.95 79.6065 43.3917 79.6065C61.8334 79.6065 76.7834 76.1785 76.7834 71.9498V69.7207C76.7834 73.9494 61.8334 77.3774 43.3917 77.3774Z" fill="#86AEBC"/>
<path d="M43.3918 22.3134C61.8333 22.3134 76.783 18.8854 76.783 14.6567C76.783 10.428 61.8333 7 43.3918 7C24.9503 7 10.0005 10.428 10.0005 14.6567C10.0005 18.8854 24.9503 22.3134 43.3918 22.3134Z" fill="#9EBECC"/>
<path d="M43.3919 7C42.1017 7 40.8293 7.01732 39.5771 7.04996C56.222 7.48418 69.1541 10.7238 69.1541 14.6565C69.1541 18.5893 56.2221 21.8291 39.5771 22.2631C40.8293 22.2958 42.1017 22.3131 43.3919 22.3131C61.8336 22.3131 76.7836 18.8851 76.7836 14.6564C76.7836 10.428 61.8336 7 43.3919 7Z" fill="#86AEBC"/>
<path d="M63.6716 33.2133C65.4265 33.2133 66.849 31.7907 66.849 30.0358C66.849 28.281 65.4265 26.8584 63.6716 26.8584C61.9167 26.8584 60.4941 28.281 60.4941 30.0358C60.4941 31.7907 61.9167 33.2133 63.6716 33.2133Z" fill="#FC9F3D"/>
<path d="M43.392 33.0224C34.244 33.0224 25.6722 32.193 19.2557 30.6871C18.6663 30.5489 18.3005 29.9588 18.4389 29.3693C18.5773 28.7798 19.1684 28.4147 19.7568 28.5525C26.0139 30.0211 34.4078 30.8298 43.3921 30.8298C47.1554 30.8298 50.8464 30.6863 54.3628 30.4034C54.9665 30.3548 55.4948 30.8048 55.5434 31.408C55.5919 32.0116 55.1421 32.5401 54.5387 32.5886C50.9639 32.8765 47.2136 33.0224 43.392 33.0224Z" fill="#9EBECC"/>
<path d="M63.6716 52.058C65.4265 52.058 66.849 50.6354 66.849 48.8806C66.849 47.1257 65.4265 45.7031 63.6716 45.7031C61.9167 45.7031 60.4941 47.1257 60.4941 48.8806C60.4941 50.6354 61.9167 52.058 63.6716 52.058Z" fill="#FC9F3D"/>
<path d="M43.392 51.8671C34.2446 51.8671 25.6728 51.0377 19.2557 49.5318C18.6663 49.3936 18.3005 48.8035 18.4389 48.214C18.5773 47.6244 19.1674 47.2594 19.7568 47.3973C26.0144 48.8658 34.4084 49.6745 43.3921 49.6745C47.1554 49.6745 50.8464 49.531 54.3628 49.2481C54.9695 49.1976 55.4948 49.6495 55.5434 50.2528C55.5919 50.8563 55.1421 51.3848 54.5387 51.4333C50.9639 51.7213 47.2136 51.8671 43.392 51.8671Z" fill="#9EBECC"/>
<path d="M63.6716 70.933C65.4265 70.933 66.849 69.5104 66.849 67.7556C66.849 66.0007 65.4265 64.5781 63.6716 64.5781C61.9167 64.5781 60.4941 66.0007 60.4941 67.7556C60.4941 69.5104 61.9167 70.933 63.6716 70.933Z" fill="#FC9F3D"/>
<path d="M43.392 70.7411C34.244 70.7411 25.6722 69.9117 19.2557 68.4058C18.6663 68.2675 18.3005 67.6774 18.4389 67.0879C18.5773 66.4984 19.1684 66.1336 19.7568 66.2712C26.0139 67.7398 34.4078 68.5484 43.3921 68.5484C47.1554 68.5484 50.8464 68.4049 54.3628 68.122C54.9665 68.0723 55.4948 68.5233 55.5434 69.1267C55.5919 69.7303 55.1421 70.2587 54.5387 70.3073C50.9639 70.5951 47.2136 70.7411 43.392 70.7411Z" fill="#9EBECC"/>
</svg>
