<svg width="86" height="86" viewBox="0 0 86 86" fill="none" xmlns="http://www.w3.org/2000/svg">
<path d="M64.5492 37.9584L61.2375 37.7056C61.0691 37.1213 60.8425 36.5626 60.5622 36.036L62.78 33.5313C63.0184 33.2614 63.006 32.8533 62.7518 32.5985L60.534 30.3807C60.2818 30.1285 59.879 30.1134 59.6085 30.3453L57.0887 32.5075C56.5666 32.2186 56.0112 31.9815 55.4302 31.804L55.2272 28.4661C55.2055 28.1065 54.9075 27.8262 54.5473 27.8262H51.4111C51.0548 27.8262 50.7587 28.1006 50.7319 28.4556L50.479 31.7667C49.8502 31.9481 49.2502 32.197 48.6889 32.5075L46.1691 30.3453C45.8986 30.1134 45.4958 30.1292 45.2442 30.3807L43.0264 32.5985C42.7716 32.8533 42.7592 33.262 42.9976 33.5313L41.2284 37.9584C40.8734 37.9859 40.5996 38.282 40.5996 38.6377V41.7738C40.5996 42.1341 40.88 42.4321 41.2389 42.4537L44.5774 42.6568C44.755 43.2384 44.9921 43.7932 45.2809 44.3152L43.1181 46.8357C42.8869 47.1056 42.9019 47.509 43.1535 47.7606L45.3713 49.9784C45.6261 50.2332 46.0348 50.2456 46.3047 50.0066L48.8094 47.7887C49.3361 48.0691 49.8948 48.2964 50.4784 48.4647L50.7319 51.7757C50.7587 52.1307 51.0548 52.4052 51.4105 52.4052H54.5473C54.9069 52.4052 55.2049 52.1249 55.2272 51.7653L55.4302 48.4274C55.9667 48.2636 56.4808 48.0488 56.9682 47.7894L59.4729 50.0072C59.7428 50.2456 60.1515 50.2332 60.4056 49.9784L62.6241 47.7606C62.8756 47.509 62.8907 47.1062 62.6588 46.8357L60.4967 44.3159C60.7855 43.7932 61.0226 43.2384 61.2001 42.6574L64.5387 42.4544C64.8976 42.4321 65.178 42.1341 65.178 41.7745V38.6377C65.178 38.282 64.9042 37.9859 64.5492 37.9584V37.9584ZM52.8888 43.7185C50.8989 43.7185 49.2856 42.1059 49.2856 40.1154C49.2856 38.1255 50.8989 36.5122 52.8888 36.5122C54.8787 36.5122 56.492 38.1255 56.492 40.1154C56.492 42.1053 54.8787 43.7185 52.8888 43.7185V43.7185Z" fill="#89B4C9"/>
<path d="M47.5626 22.8267L44.2162 22.5712C43.8985 21.2959 43.4033 20.0927 42.7608 18.9844L45.0114 16.4423C45.3552 16.0533 45.3376 15.4638 44.9701 15.097L41.7717 11.8986C41.4088 11.5357 40.8279 11.5134 40.4381 11.8475L37.8908 14.0339C36.7917 13.373 35.5944 12.8608 34.325 12.5235L34.1193 9.13709C34.0879 8.61898 33.6582 8.21484 33.1394 8.21484H28.616C28.1031 8.21484 27.676 8.61047 27.6367 9.12202L27.3813 12.4684C26.0339 12.8045 24.7639 13.3363 23.6045 14.0332L21.0566 11.8475C20.6675 11.5134 20.0858 11.5357 19.723 11.8986L16.5246 15.097C16.1578 15.4638 16.1394 16.0533 16.484 16.4423L18.7346 18.9844C18.0914 20.0927 17.5968 21.2959 17.2792 22.5712L13.9321 22.8267C13.4205 22.866 13.0249 23.2924 13.0249 23.8059V28.3287C13.0249 28.8481 13.429 29.2778 13.9478 29.3092L17.3335 29.5149C17.6715 30.7843 18.1831 31.9817 18.844 33.0801L16.6582 35.6281C16.3235 36.0171 16.3458 36.5988 16.7086 36.9617L19.907 40.16C20.2738 40.5268 20.864 40.5452 21.2524 40.2007L23.7945 37.9501C24.9027 38.5933 26.1066 39.0885 27.3813 39.4055L27.6367 42.7525C27.676 43.2641 28.1031 43.6597 28.616 43.6597H33.1394C33.6582 43.6597 34.0879 43.2556 34.1193 42.7368L34.325 39.3511C35.5217 39.0328 36.6535 38.5572 37.7002 37.9501L40.2423 40.2007C40.6314 40.5452 41.2209 40.5268 41.5877 40.16L44.786 36.9617C45.1489 36.5988 45.1712 36.0171 44.8371 35.6274L42.6507 33.0801C43.3116 31.9817 43.8238 30.7837 44.1612 29.5149L47.5475 29.3092C48.0657 29.2778 48.4698 28.8481 48.4698 28.3287V23.8059C48.4698 23.2924 48.0742 22.866 47.5626 22.8267ZM30.7473 33.8674C26.368 33.8674 22.8179 30.3166 22.8179 25.9373C22.8179 21.5579 26.368 18.0078 30.7473 18.0078C35.1267 18.0078 38.6768 21.5579 38.6768 25.9373C38.6768 30.3166 35.1267 33.8674 30.7473 33.8674Z" fill="#A7C7D3"/>
<path d="M47.5626 22.8267L44.2162 22.5712C43.8985 21.2959 43.4033 20.0927 42.7608 18.9844L45.0114 16.4423C45.3552 16.0533 45.3376 15.4638 44.9701 15.097L41.7717 11.8986C41.4088 11.5357 40.8279 11.5134 40.4381 11.8475L37.8908 14.0339C36.7917 13.373 35.5944 12.8608 34.325 12.5235L34.1193 9.13709C34.0879 8.61898 33.6582 8.21484 33.1394 8.21484H28.616C28.1031 8.21484 27.676 8.61047 27.6367 9.12202L27.3813 12.4684C26.0339 12.8045 24.7639 13.3363 23.6045 14.0332L21.0566 11.8475C20.6675 11.5134 20.0858 11.5357 19.723 11.8986L16.5246 15.097C16.1578 15.4638 16.1394 16.0533 16.484 16.4423L18.7346 18.9844C18.0914 20.0927 17.5968 21.2959 17.2792 22.5712L13.9321 22.8267C13.4205 22.866 13.0249 23.2924 13.0249 23.8059V28.3287C13.0249 28.8481 13.429 29.2778 13.9478 29.3092L17.3335 29.5149C17.6715 30.7843 18.1831 31.9817 18.844 33.0801L16.6582 35.6281C16.3235 36.0171 16.3458 36.5988 16.7086 36.9617L19.907 40.16C20.2738 40.5268 20.864 40.5452 21.2524 40.2007L23.7945 37.9501C24.9027 38.5933 26.1066 39.0885 27.3813 39.4055L27.6367 42.7525C27.676 43.2641 28.1031 43.6597 28.616 43.6597H33.1394C33.6582 43.6597 34.0879 43.2556 34.1193 42.7368L34.325 39.3511C35.5217 39.0328 36.6535 38.5572 37.7002 37.9501L40.2423 40.2007C40.6314 40.5452 41.2209 40.5268 41.5877 40.16L44.786 36.9617C45.1489 36.5988 45.1712 36.0171 44.8371 35.6274L42.6507 33.0801C43.3116 31.9817 43.8238 30.7837 44.1612 29.5149L47.5475 29.3092C48.0657 29.2778 48.4698 28.8481 48.4698 28.3287V23.8059C48.4698 23.2924 48.0742 22.866 47.5626 22.8267ZM30.7473 33.8674C26.368 33.8674 22.8179 30.3166 22.8179 25.9373C22.8179 21.5579 26.368 18.0078 30.7473 18.0078C35.1267 18.0078 38.6768 21.5579 38.6768 25.9373C38.6768 30.3166 35.1267 33.8674 30.7473 33.8674Z" fill="#A7C7D3"/>
<path d="M20.0307 44.7625C19.6593 44.8024 19.286 44.7173 18.969 44.5214L11.2962 39.6043C9.9358 38.7325 8.14371 38.984 7.0754 40.1958L6.4931 40.856C5.62718 41.8379 5.14445 43.0994 5.13397 44.4088L5.05078 54.4113L9.8369 54.6799L13.8036 54.2934L13.9071 46.5696L18.295 49.0095C18.6061 49.1824 18.9637 49.2519 19.3168 49.2086L25.7391 48.4181C28.1167 48.1259 29.9023 46.1066 29.9023 43.7112L20.0307 44.7625Z" fill="#FF84A7"/>
<path d="M26.9063 44.0309C26.1786 44.7678 22.0652 48.3592 16.6686 45.9966L14.1763 44.6106C13.3196 44.1344 12.2643 44.7455 12.2512 45.7261C12.21 48.817 9.71375 51.3132 6.62214 51.3552L5.07567 51.3761L5.05078 54.4114L13.8036 54.2935L13.9071 46.5704L18.295 49.0102C18.6061 49.1832 18.9637 49.2526 19.3168 49.2094L25.7391 48.4188C28.1167 48.126 29.9023 46.1073 29.9023 43.7119L26.9063 44.0309Z" fill="#EF6085"/>
<path d="M13.8036 54.293L22.7359 63.5842C23.5599 64.42 23.7112 65.7084 23.104 66.7125L17.7801 79.6659H14.7062L17.281 68.2053C17.4035 67.8987 17.3596 67.5509 17.1657 67.2837L5.05078 54.4109L13.8036 54.293Z" fill="#38627C"/>
<path d="M5.05095 54.4109L13.8038 54.293L5.05095 79.6659H1.79492L5.05095 54.4109Z" fill="#4F7693"/>
<path d="M7.44257 33.5122L7.16551 36.442C7.03581 37.8188 8.04649 39.0404 9.4233 39.1701L10.5827 39.2795C11.9595 39.4098 13.1811 38.3992 13.3108 37.0223L13.5878 34.0925C13.7175 32.7157 12.7068 31.4941 11.33 31.3644L10.1707 31.2544C8.79385 31.1247 7.57226 32.1354 7.44257 33.5122Z" fill="#FEDFC5"/>
<path d="M6.37646 85.2616H1.28381C0.575094 85.2616 0 84.6872 0 83.9778C0 83.2685 0.575094 82.6934 1.28381 82.6934H6.37646C7.08583 82.6934 7.66093 83.2685 7.66093 83.9778C7.66093 84.6872 7.08583 85.2616 6.37646 85.2616Z" fill="#2F5066"/>
<path d="M19.3364 85.2616H14.2438C13.5351 85.2616 12.96 84.6872 12.96 83.9778C12.96 83.2685 13.5351 82.6934 14.2438 82.6934H19.3364C20.0458 82.6934 20.6209 83.2685 20.6209 83.9778C20.6209 84.6872 20.0458 85.2616 19.3364 85.2616Z" fill="#2F5066"/>
<path d="M78.6706 42.9549L62.2667 34.0449C61.5508 36.6479 62.6479 39.4094 64.9549 40.8111L73.2099 45.8271L73.0507 56.036L77.4936 58.1916L81.045 59.3124V46.9472C81.0457 45.2815 80.1339 43.7495 78.6706 42.9549V42.9549Z" fill="#83D9FF"/>
<path d="M70.7133 44.3101C70.7395 42.6339 69.8756 41.0691 68.4424 40.198L62.5002 36.5876C62.3581 36.5011 62.2205 36.4094 62.0869 36.3125C62.29 38.1354 63.317 39.8161 64.9545 40.8111L70.7133 44.3101Z" fill="#5FC9ED"/>
<path d="M78.6699 42.9547L78.5913 42.9121V49.1556C78.5913 51.9865 75.7204 53.9129 73.101 52.8394L73.0513 56.0364L81.0456 59.3128V46.9476C81.0456 45.2819 80.1338 43.7499 78.6699 42.9547V42.9547Z" fill="#5FC9ED"/>
<path d="M73.0512 56.0361L65.759 66.173C65.385 66.6924 65.2154 67.3317 65.2809 67.969L66.5136 79.8442H69.3969L70.1443 70.3565C70.1954 69.7021 70.4914 69.091 70.9728 68.645L81.0455 59.3125L73.0512 56.0361Z" fill="#38627C"/>
<path d="M81.0458 59.3125L78.788 68.4275C78.6459 69 78.7193 69.6045 78.9937 70.1266L84.1034 79.8442H81.0452L73.1963 70.7069C72.7175 70.1502 72.4692 69.4323 72.5013 68.6993L73.0508 56.0361L81.0458 59.3125Z" fill="#4F7693"/>
<path d="M76.8993 35.8727L75.5578 38.4921C74.927 39.7229 75.4137 41.232 76.6451 41.8621L77.6813 42.3933C78.9121 43.0234 80.4212 42.5367 81.0513 41.306L82.3934 38.6866C83.0235 37.4559 82.5369 35.9468 81.3061 35.3166L80.2693 34.7854C79.0385 34.1553 77.53 34.642 76.8993 35.8727V35.8727Z" fill="#FEDFC5"/>
<path d="M84.569 85.2616H79.4764C78.767 85.2616 78.1919 84.6872 78.1919 83.9778C78.1919 83.2685 78.767 82.6934 79.4764 82.6934H84.569C85.2777 82.6934 85.8528 83.2685 85.8528 83.9778C85.8528 84.6872 85.2777 85.2616 84.569 85.2616Z" fill="#2F5066"/>
<path d="M69.5879 85.2616H64.4952C63.7859 85.2616 63.2114 84.6872 63.2114 83.9778C63.2114 83.2685 63.7859 82.6934 64.4952 82.6934H69.5879C70.2966 82.6934 70.8717 83.2685 70.8717 83.9778C70.8717 84.6872 70.2966 85.2616 69.5879 85.2616Z" fill="#2F5066"/>
<path d="M69.2089 31.9426C68.7406 31.9426 68.2893 31.6859 68.0626 31.2392C65.5546 26.2932 60.5543 23.2206 55.0123 23.2206C54.3036 23.2206 53.7285 22.6455 53.7285 21.9362C53.7285 21.2268 54.3036 20.6523 55.0123 20.6523C61.527 20.6523 67.405 24.264 70.3532 30.0779C70.6741 30.7106 70.4213 31.4828 69.7886 31.8038C69.6025 31.8981 69.4041 31.9426 69.2089 31.9426V31.9426Z" fill="#FCE6A9"/>
<path d="M69.2288 31.9433C69.1273 31.9433 69.0258 31.9315 68.9262 31.9073L64.9222 30.9366C64.2331 30.7695 63.8093 30.0752 63.9763 29.3862C64.1434 28.6971 64.8377 28.274 65.5274 28.4403L68.283 29.1091L68.879 26.6515C69.0461 25.9625 69.7397 25.5393 70.4294 25.7064C71.1185 25.8734 71.5416 26.5677 71.3746 27.2567L70.4766 30.9614C70.396 31.2929 70.1877 31.5785 69.8969 31.7553C69.6939 31.8791 69.4626 31.9433 69.2288 31.9433Z" fill="#FCE6A9"/>
<path d="M7.64673 17.7347C7.48363 17.7347 7.31857 17.7039 7.15875 17.6384C6.50244 17.3686 6.18934 16.6179 6.45921 15.9623C10.1967 6.87277 18.9619 1 28.7896 1C29.4983 1 30.0734 1.57509 30.0734 2.28381C30.0734 2.99318 29.4983 3.56827 28.7896 3.56827C20.0073 3.56827 12.1741 8.81616 8.83491 16.9389C8.63054 17.4347 8.15174 17.7347 7.64673 17.7347Z" fill="#FCE6A9"/>
<path d="M7.67746 17.7349C7.49275 17.7349 7.30738 17.6949 7.13643 17.615C6.82727 17.4716 6.58819 17.2109 6.4716 16.8913L4.95788 12.7464C4.71422 12.0803 5.05679 11.3427 5.72358 11.0997C6.38907 10.8567 7.1266 11.1986 7.36961 11.8654L8.44316 14.8038L11.3822 13.7309C12.0476 13.4879 12.7852 13.8298 13.0288 14.4959C13.2719 15.1627 12.9293 15.8996 12.2631 16.1432L8.11828 17.657C7.97614 17.7087 7.8268 17.7349 7.67746 17.7349Z" fill="#FCE6A9"/>
</svg>
