<svg width="321" height="92" viewBox="0 0 321 92" fill="none" xmlns="http://www.w3.org/2000/svg">
<g clip-path="url(#clip0_3601_475)">
<path d="M320.58 0.706543H0.769531V90.8809H320.58V0.706543Z" fill="#A93032"/>
<path d="M59.8369 39.9746H63.9793V57.7155H67.0861V39.9746H71.2286V37.2419H59.8369V39.9746Z" fill="white"/>
<path d="M75.1553 57.7155H84.3898V54.7659H78.2627V48.2595H83.6129V45.4834H78.2627V39.9746H84.3898V37.2419H75.1553V57.7155Z" fill="white"/>
<path d="M93.5377 37.0681C90.5174 37.0681 88.4893 39.1068 88.4893 41.7961V53.0739C88.4893 56.8043 91.2079 57.8886 93.5806 57.8886C96.3427 57.8886 98.4999 55.6765 98.4999 53.1607V51.8594H95.3932V52.857C95.3932 54.462 94.3146 54.9391 93.4514 54.9391C92.0704 54.9391 91.5525 54.0282 91.5525 52.857V42.4034C91.5525 41.0153 91.8977 40.0177 93.4514 40.0177C94.6164 40.0177 95.3497 41.0153 95.3497 42.1431V43.1408H98.4571V41.9696C98.4999 39.1068 96.3855 37.0681 93.5377 37.0681Z" fill="white"/>
<path d="M109.502 45.4834H105.662V37.2419H102.598V57.7155H105.662V48.086H109.502V57.7155H112.609V37.2419H109.502V45.4834Z" fill="white"/>
<path d="M125.943 37.0681C122.922 37.0681 120.894 39.1068 120.894 41.7961V53.0739C120.894 56.8043 123.613 57.8886 125.986 57.8886C128.747 57.8886 130.905 55.6765 130.905 53.1607V51.8594H127.798V52.857C127.798 54.462 126.719 54.9391 125.856 54.9391C124.476 54.9391 123.958 54.0282 123.958 52.857V42.4034C123.958 41.0153 124.303 40.0177 125.856 40.0177C127.022 40.0177 127.755 41.0153 127.755 42.1431V43.1408H130.862V41.9696C130.948 39.1068 128.791 37.0681 125.943 37.0681Z" fill="white"/>
<path d="M138.284 37.2419L133.451 57.7155H136.558L137.594 52.8573H141.52L142.599 57.7155H145.706L140.873 37.2419H138.284ZM138.112 50.168L139.492 43.4014H139.535L140.917 50.168H138.112Z" fill="white"/>
<path d="M156.019 48.0426L151.66 37.2419H149.028V57.7155H152.049V46.4811L156.191 56.2407L159.945 46.4811V57.7155H163.009V37.2419H160.334L156.019 48.0426Z" fill="white"/>
<path d="M171.769 37.2419H168.748H167.195V57.7155H170.302V48.8668H171.769C175.177 48.8668 177.896 46.2642 177.896 43.0544C177.896 39.8445 175.135 37.2419 171.769 37.2419ZM171.769 46.0907H170.302V40.018H171.769C173.538 40.018 174.962 41.3627 174.962 43.0544C174.962 44.7027 173.538 46.0907 171.769 46.0907Z" fill="white"/>
<g opacity="0.8">
<path d="M26.4824 57.7149H55.6952L50.8623 49.4301C50.7328 49.2132 50.474 49.0831 50.2151 49.1265C48.1438 49.4301 34.5515 51.035 26.4824 57.7149Z" fill="white"/>
</g>
<path d="M26.4819 57.7156C26.4819 57.7156 40.1606 49.5608 49.0495 47.3487C49.3084 47.3052 49.3947 47.0017 49.3084 46.7847L41.1099 32.6875L26.4819 57.7156Z" fill="white"/>
<path d="M196.922 43.6484C196.781 43.8536 196.449 44.4058 196.275 44.8003C195.613 46.2677 194.461 48.3821 193.072 50.023C191.305 52.0901 188.86 54.094 186.429 55.2616L184.441 53.1946C186.997 52.2637 189.491 50.3229 190.895 48.7608C191.921 47.5931 192.773 46.2046 193.104 45.1948C192.394 45.1948 188.954 45.1948 188.196 45.1948C187.487 45.1948 186.619 45.2894 186.177 45.321V42.607C186.729 42.6859 187.739 42.7333 188.196 42.7333C189.143 42.7333 192.71 42.7333 193.467 42.7333C194.256 42.7333 194.997 42.6228 195.36 42.4966L196.922 43.6484ZM193.278 48.4452C194.871 49.7075 197.191 52.1375 198.185 53.3682L195.992 55.2774C194.808 53.5891 193.151 51.7903 191.463 50.2282L193.278 48.4452ZM204.748 43.0961C204.638 42.6228 204.528 42.2284 204.402 41.8339L207.1 41.4078C207.147 41.7234 207.195 42.3073 207.274 42.7017C207.462 43.9325 208.914 51.5379 209.309 53.4628C209.42 53.9362 209.577 54.5201 209.719 55.0723L206.973 55.5457C206.895 54.9303 206.863 54.3623 206.769 53.8889C206.484 52.2163 205.049 44.6267 204.748 43.0961ZM200.52 44.9581C201.072 44.9265 201.578 44.8949 202.067 44.8318C203.376 44.6741 208.93 43.822 210.303 43.5538C210.823 43.4591 211.534 43.3013 211.976 43.1751L212.433 45.6681C212.023 45.6997 211.297 45.8101 210.792 45.8732C209.088 46.1415 203.628 47.0093 202.571 47.1987C202.035 47.3091 201.609 47.4038 201.025 47.5616L200.52 44.9581ZM200.567 49.6286C201.009 49.6128 201.798 49.5181 202.334 49.4392C204.023 49.1868 209.719 48.2874 211.502 47.9403C212.117 47.814 212.78 47.6562 213.238 47.53L213.743 50.0388C213.27 50.0704 212.544 50.1966 211.944 50.2913C210.003 50.5911 204.323 51.5221 202.777 51.8218C202.067 51.9481 201.467 52.0586 201.104 52.1532L200.567 49.6286ZM222.768 54.0624C222.847 53.7311 222.91 53.242 222.91 52.7528C222.91 51.8534 222.91 45.1317 222.91 43.6957C222.91 42.9226 222.768 42.2284 222.768 42.2284H225.608C225.608 42.2284 225.482 42.9384 225.482 43.7115C225.482 45.1317 225.482 50.244 225.482 51.4747C226.665 50.9856 228.007 49.8495 228.985 48.461L230.453 50.5753C229.175 52.2006 226.871 53.952 225.119 54.8514C224.74 55.0566 224.536 55.2458 224.362 55.3721L222.768 54.0624ZM215.416 53.7469C216.851 52.7528 217.656 51.2696 218.066 50.023C218.508 48.7292 218.524 45.8259 218.524 43.8536C218.524 43.1119 218.461 42.6544 218.35 42.2284H221.159C221.159 42.2284 221.033 43.0646 221.033 43.822C221.033 45.7628 220.985 49.0606 220.575 50.6542C220.086 52.4846 219.123 54.0467 217.751 55.2932L215.416 53.7469ZM238.937 41.6288C238.89 42.0074 238.843 42.7333 238.827 43.1119C238.653 49.2973 237.328 52.6266 233.62 55.2932L231.395 53.4944C232.137 53.0842 233.005 52.5003 233.73 51.7429C235.844 49.5497 236.255 46.8516 236.255 43.1593C236.255 42.8122 236.192 42.0074 236.129 41.6288H238.937ZM244.223 45.0685C244.176 45.321 244.113 45.7786 244.113 45.9363C244.05 47.7509 243.844 52.0586 243.182 53.7153C242.835 54.5832 242.172 55.0723 240.972 55.0723C239.994 55.0723 239.047 54.9934 238.306 54.9303L238.006 52.3741C238.748 52.5161 239.553 52.6108 240.152 52.6108C240.689 52.6108 240.862 52.4214 241.02 52.027C241.399 51.1591 241.62 48.4136 241.62 46.6937H234.267C233.777 46.6937 232.768 46.7095 232.042 46.7726V44.2796C232.768 44.3585 233.667 44.4058 234.267 44.4058H241.288C241.682 44.4058 242.156 44.3585 242.598 44.2796L244.223 45.0685ZM248.941 53.7311C249.162 53.2578 249.178 52.9579 249.178 52.5635C249.178 51.2538 249.178 46.1731 249.178 44.2638C249.178 43.5695 249.083 42.7964 248.972 42.2757H251.971C251.86 43.0015 251.797 43.5695 251.797 44.2638C251.797 46.1573 251.797 50.6226 251.797 52.0428C254.117 51.3327 257.556 49.3446 259.607 46.9147L260.964 49.0921C258.74 51.6956 255.442 53.5417 251.844 54.8041C251.607 54.883 251.197 55.0092 250.756 55.309L248.941 53.7311ZM270.037 44.8949C270.353 45.5892 271.126 47.6405 271.362 48.3821L269.075 49.171C268.854 48.3821 268.191 46.5202 267.765 45.6366L270.037 44.8949ZM275.922 46.1888C275.702 46.8042 275.591 47.1829 275.481 47.5616C275.071 49.0764 274.408 50.6858 273.366 52.0428C271.899 53.9678 269.911 55.3405 268.018 56.0664L266.014 54.0151C267.686 53.5891 269.99 52.3899 271.3 50.7331C272.341 49.4235 273.083 47.2776 273.225 45.321L275.922 46.1888ZM266.377 45.747C266.818 46.6306 267.544 48.461 267.86 49.3761L265.524 50.244C265.256 49.3919 264.499 47.3249 264.073 46.5675L266.377 45.747ZM289.287 42.1179C289.761 42.828 290.36 43.8378 290.707 44.5479L289.082 45.2421C288.578 44.1533 288.325 43.6326 287.71 42.7648L289.287 42.1179ZM291.528 41.3447C292.049 42.0232 292.617 43.0015 292.996 43.68L291.386 44.39C290.834 43.3013 290.534 42.8437 289.918 42.0074L291.528 41.3447ZM282.376 41.7708C283.481 42.3703 285.169 43.4276 286.068 44.0429L284.648 46.1573C283.702 45.5261 282.092 44.5005 280.988 43.8851L282.376 41.7708ZM279.142 52.9264C280.925 52.6266 282.771 52.1532 284.553 51.1907C287.267 49.6917 289.54 47.4669 290.786 45.1948L292.254 47.814C290.739 50.0388 288.482 52.0112 285.864 53.5102C284.254 54.4096 281.935 55.2301 280.578 55.451L279.142 52.9264ZM279.914 45.3999C281.051 45.9995 282.723 47.0566 283.607 47.672L282.203 49.818C281.24 49.1553 279.647 48.1139 278.526 47.5143L279.914 45.3999Z" fill="white"/>
</g>
<defs>
<clipPath id="clip0_3601_475">
<rect width="320.507" height="91" fill="white" transform="translate(0.246094 0.5)"/>
</clipPath>
</defs>
</svg>
