<svg width="29" height="29" viewBox="0 0 29 29" fill="none" xmlns="http://www.w3.org/2000/svg">
<circle cx="14.5494" cy="14.5504" r="13.4088" fill="#A93032"/>
<path d="M8 14.2838L13.1081 19.3919L21.5 11" stroke="white" stroke-width="2.18919" stroke-linecap="round"/>
<path d="M4.06763 16.4898C4.06763 8.84394 10.287 2.68162 17.8758 2.68162C19.7017 2.68162 21.5275 3.02397 23.2393 3.76573C20.7858 1.76868 17.7046 0.68457 14.5093 0.68457C6.8635 0.68457 0.701172 6.90395 0.701172 14.4927C0.701172 20.0845 4.06763 25.1056 9.2029 27.2738C5.8935 24.6492 4.01057 20.6551 4.06763 16.4898Z" fill="#BE3E4E"/>
<path d="M14.5098 0C8.63275 0 3.32631 3.53763 1.10103 8.95819C-1.12426 14.3787 0.073974 20.5981 4.23925 24.7634C9.88804 30.4122 19.0745 30.4122 24.7233 24.7634C30.3721 19.1146 30.3721 9.92818 24.7233 4.27939C22.0415 1.48352 18.3327 0 14.5098 0ZM14.5098 27.6734C7.26335 27.6734 1.32926 21.7964 1.32926 14.4929C1.32926 7.24643 7.20629 1.31235 14.5098 1.31235C21.7562 1.31235 27.6903 7.18937 27.6903 14.4929C27.6332 21.7393 21.7562 27.6734 14.5098 27.6734Z" fill="#A93032"/>
</svg>
