<svg width="290" height="39" viewBox="0 0 290 39" fill="none" xmlns="http://www.w3.org/2000/svg">
<rect width="290" height="39" fill="white"/>
<path d="M42.1758 13.4658H46.4199V31.6422H49.603V13.4658H53.8471V10.666H42.1758V13.4658Z" fill="#040000"/>
<path d="M57.8701 31.6422H67.331V28.6202H61.0532V21.9541H66.5352V19.1098H61.0532V13.4658H67.331V10.666H57.8701V31.6422Z" fill="#040000"/>
<path d="M76.7038 10.4883C73.6091 10.4883 71.5312 12.577 71.5312 15.3324V26.8871C71.5312 30.709 74.3165 31.82 76.748 31.82C79.5774 31.82 81.7879 29.5535 81.7879 26.9759V25.6427H78.6048V26.6648C78.6048 28.3092 77.4995 28.798 76.6153 28.798C75.2006 28.798 74.6701 27.8648 74.6701 26.6648V15.9545C74.6701 14.5324 75.0238 13.5103 76.6153 13.5103C77.809 13.5103 78.5606 14.5324 78.5606 15.6879V16.71H81.7437V15.5101C81.7879 12.577 79.6216 10.4883 76.7038 10.4883Z" fill="#040000"/>
<path d="M93.0599 19.1098H89.1252V10.666H85.9863V31.6422H89.1252V21.7763H93.0599V31.6422H96.2429V10.666H93.0599V19.1098Z" fill="#040000"/>
<path d="M109.904 10.4883C106.809 10.4883 104.731 12.577 104.731 15.3324V26.8871C104.731 30.709 107.517 31.82 109.948 31.82C112.778 31.82 114.988 29.5535 114.988 26.9759V25.6427H111.805V26.6648C111.805 28.3092 110.7 28.798 109.816 28.798C108.401 28.798 107.87 27.8648 107.87 26.6648V15.9545C107.87 14.5324 108.224 13.5103 109.816 13.5103C111.009 13.5103 111.761 14.5324 111.761 15.6879V16.71H114.944V15.5101C115.032 12.577 112.822 10.4883 109.904 10.4883Z" fill="#040000"/>
<path d="M122.549 10.666L117.598 31.6422H120.781L121.842 26.6648H125.865L126.97 31.6422H130.153L125.202 10.666H122.549ZM122.372 23.9095L123.787 16.9767H123.831L125.246 23.9095H122.372V23.9095Z" fill="#040000"/>
<path d="M140.72 21.7319L136.254 10.666H133.558V31.6422H136.652V20.132L140.896 30.1312L144.743 20.132V31.6422H147.882V10.666H145.141L140.72 21.7319Z" fill="#040000"/>
<path d="M156.856 10.666H153.761H152.17V31.6422H155.353V22.5762H156.856C160.349 22.5762 163.134 19.9098 163.134 16.6211C163.134 13.3325 160.305 10.666 156.856 10.666ZM156.856 19.732H155.353V13.5102H156.856C158.669 13.5102 160.128 14.8879 160.128 16.6211C160.128 18.3099 158.669 19.732 156.856 19.732Z" fill="#040000"/>
<path d="M8 31.6428H37.9299L32.9784 23.1546C32.8458 22.9324 32.5805 22.799 32.3153 22.8435C30.1932 23.1546 16.2672 24.7989 8 31.6428Z" fill="#C3C3C3"/>
<path d="M8 31.6425C8 31.6425 22.0144 23.2876 31.1216 21.0211C31.3869 20.9767 31.4753 20.6656 31.3869 20.4434L22.9871 6L8 31.6425Z" fill="#A93032"/>
<path d="M182.627 17.7202C182.481 17.9304 182.142 18.4962 181.964 18.9003C181.285 20.4038 180.105 22.5701 178.682 24.2513C176.872 26.3691 174.366 28.4222 171.876 29.6185L169.839 27.5008C172.458 26.5469 175.012 24.5585 176.451 22.958C177.502 21.7617 178.375 20.3391 178.714 19.3045C177.987 19.3045 174.463 19.3045 173.687 19.3045C172.959 19.3045 172.07 19.4015 171.618 19.4338V16.6532C172.183 16.7341 173.218 16.7826 173.687 16.7826C174.657 16.7826 178.31 16.7826 179.086 16.7826C179.895 16.7826 180.654 16.6694 181.026 16.5401L182.627 17.7202ZM178.892 22.6347C180.525 23.928 182.902 26.4176 183.92 27.6786L181.673 29.6347C180.46 27.9049 178.763 26.062 177.033 24.4615L178.892 22.6347ZM190.645 17.1544C190.532 16.6694 190.419 16.2652 190.289 15.8611L193.054 15.4246C193.102 15.7479 193.151 16.3461 193.232 16.7502C193.426 18.0112 194.913 25.8033 195.317 27.7756C195.43 28.2606 195.592 28.8587 195.737 29.4245L192.925 29.9095C192.844 29.279 192.811 28.6971 192.714 28.2121C192.423 26.4984 190.952 18.7225 190.645 17.1544ZM186.313 19.062C186.878 19.0297 187.396 18.9973 187.897 18.9327C189.239 18.771 194.929 17.898 196.336 17.6232C196.869 17.5262 197.597 17.3645 198.049 17.2352L198.518 19.7895C198.098 19.8218 197.354 19.935 196.837 19.9996C195.091 20.2745 189.497 21.1636 188.414 21.3576C187.865 21.4708 187.428 21.5678 186.83 21.7294L186.313 19.062ZM186.361 23.8472C186.814 23.831 187.622 23.734 188.172 23.6532C189.901 23.3945 195.737 22.4731 197.564 22.1174C198.195 21.9881 198.874 21.8264 199.343 21.6971L199.86 24.2675C199.375 24.2998 198.631 24.4292 198.017 24.5262C196.028 24.8333 190.209 25.7871 188.624 26.0943C187.897 26.2236 187.283 26.3368 186.911 26.4338L186.361 23.8472ZM209.107 28.3899C209.188 28.0504 209.252 27.5493 209.252 27.0481C209.252 26.1266 209.252 19.2398 209.252 17.7687C209.252 16.9765 209.107 16.2652 209.107 16.2652H212.017C212.017 16.2652 211.888 16.9927 211.888 17.7849C211.888 19.2398 211.888 24.4777 211.888 25.7386C213.1 25.2375 214.474 24.0735 215.476 22.6509L216.98 24.8172C215.67 26.4823 213.31 28.2767 211.516 29.1982C211.128 29.4084 210.918 29.6024 210.74 29.7317L209.107 28.3899ZM201.573 28.0666C203.045 27.0481 203.869 25.5285 204.289 24.2513C204.742 22.9257 204.758 19.9511 204.758 17.9304C204.758 17.1705 204.694 16.7017 204.58 16.2652H207.458C207.458 16.2652 207.329 17.122 207.329 17.898C207.329 19.8865 207.28 23.2652 206.86 24.898C206.359 26.7733 205.373 28.3737 203.966 29.6509L201.573 28.0666ZM225.673 15.6509C225.624 16.0389 225.576 16.7826 225.56 17.1705C225.382 23.5077 224.024 26.9188 220.225 29.6509L217.945 27.8079C218.705 27.3876 219.594 26.7894 220.338 26.0135C222.504 23.7664 222.925 21.0019 222.925 17.219C222.925 16.8634 222.86 16.0389 222.795 15.6509H225.673ZM231.089 19.1752C231.04 19.4338 230.975 19.9026 230.975 20.0643C230.911 21.9234 230.701 26.3368 230.022 28.0342C229.666 28.9234 228.987 29.4245 227.758 29.4245C226.756 29.4245 225.786 29.3437 225.026 29.279L224.719 26.6601C225.479 26.8056 226.303 26.9026 226.918 26.9026C227.467 26.9026 227.645 26.7086 227.807 26.3045C228.195 25.4153 228.421 22.6024 228.421 20.8403H220.888C220.387 20.8403 219.352 20.8564 218.608 20.9211V18.3668C219.352 18.4477 220.273 18.4962 220.888 18.4962H228.082C228.486 18.4962 228.971 18.4477 229.423 18.3668L231.089 19.1752ZM235.922 28.0504C236.149 27.5654 236.165 27.2583 236.165 26.8541C236.165 25.5123 236.165 20.3068 236.165 18.3507C236.165 17.6394 236.068 16.8472 235.955 16.3137H239.026C238.913 17.0574 238.848 17.6394 238.848 18.3507C238.848 20.2906 238.848 24.8657 238.848 26.3206C241.225 25.5931 244.749 23.5562 246.851 21.0666L248.241 23.2975C245.961 25.965 242.583 27.8564 238.897 29.1497C238.654 29.2305 238.234 29.3599 237.781 29.667L235.922 28.0504ZM257.536 18.9973C257.86 19.7086 258.652 21.8102 258.894 22.5701L256.55 23.3784C256.324 22.5701 255.645 20.6624 255.209 19.7571L257.536 18.9973ZM263.566 20.323C263.34 20.9534 263.227 21.3414 263.114 21.7294C262.694 23.2814 262.015 24.9303 260.948 26.3206C259.444 28.2929 257.407 29.6994 255.467 30.443L253.414 28.3414C255.128 27.9049 257.488 26.6763 258.83 24.9788C259.897 23.637 260.657 21.4384 260.802 19.4338L263.566 20.323ZM253.786 19.8703C254.239 20.7756 254.982 22.6509 255.306 23.5885L252.913 24.4777C252.638 23.6047 251.862 21.4869 251.426 20.7109L253.786 19.8703ZM277.259 16.1521C277.744 16.8796 278.359 17.9142 278.714 18.6417L277.049 19.353C276.532 18.2375 276.273 17.704 275.643 16.8149L277.259 16.1521ZM279.555 15.3599C280.088 16.0551 280.67 17.0574 281.058 17.7525L279.409 18.48C278.844 17.3645 278.536 16.8957 277.906 16.0389L279.555 15.3599ZM270.178 15.7964C271.31 16.4107 273.04 17.4939 273.961 18.1244L272.506 20.2906C271.536 19.644 269.887 18.5932 268.756 17.9627L270.178 15.7964ZM266.864 27.2259C268.691 26.9188 270.583 26.4338 272.409 25.4476C275.19 23.9119 277.518 21.6324 278.795 19.3045L280.299 21.9881C278.747 24.2675 276.435 26.2883 273.751 27.8241C272.102 28.7456 269.726 29.5862 268.336 29.8125L266.864 27.2259ZM267.657 19.5146C268.821 20.129 270.534 21.2121 271.439 21.8426L270.001 24.0412C269.015 23.3622 267.382 22.2952 266.234 21.6809L267.657 19.5146Z" fill="black"/>
</svg>
